<?xml version="1.0" encoding="UTF-8" standalone="no"?>
<svg xmlns:dc="http://purl.org/dc/elements/1.1/" xmlns:cc="http://creativecommons.org/ns#" xmlns:rdf="http://www.w3.org/1999/02/22-rdf-syntax-ns#" xmlns:svg="http://www.w3.org/2000/svg" xmlns="http://www.w3.org/2000/svg" xmlns:sodipodi="http://sodipodi.sourceforge.net/DTD/sodipodi-0.dtd" xmlns:inkscape="http://www.inkscape.org/namespaces/inkscape" version="1.1" id="svg4237" viewBox="0 0 263.9569 263.51442" height="74.369629mm" width="74.494507mm" inkscape:version="0.91 r13725" sodipodi:docname="notas-colour.svg">
  <sodipodi:namedview pagecolor="#ffffff" bordercolor="#666666" borderopacity="1" objecttolerance="10" gridtolerance="10" guidetolerance="10" inkscape:pageopacity="0" inkscape:pageshadow="2" inkscape:window-width="1916" inkscape:window-height="1035" id="namedview55545" showgrid="false" fit-margin-top="0" fit-margin-left="0" fit-margin-right="0" fit-margin-bottom="0" inkscape:zoom="0.70003571" inkscape:cx="207.03774" inkscape:cy="163.3039" inkscape:window-x="4" inkscape:window-y="1" inkscape:window-maximized="1" inkscape:current-layer="layer1"/>
  <defs id="defs4239"/>
  <metadata id="metadata4242">
    <rdf:RDF>
      <cc:Work rdf:about="">
        <dc:format>image/svg+xml</dc:format>
        <dc:type rdf:resource="http://purl.org/dc/dcmitype/StillImage"/>
        <dc:title/>
      </cc:Work>
    </rdf:RDF>
  </metadata>
  <g transform="matrix(2.2785523,0,0,2.05871,-690.79207,-785.43442)" id="layer1">
    <g id="g56110">
      <path inkscape:connector-curvature="0" d="m 352.29922,422.5686 60.85074,30.05357 c 1.53467,0.75818 2.47089,2.19224 2.74917,3.93844 0.27735,1.74526 -0.20347,3.37213 -1.37833,4.65247 l -41.21149,44.8535 c -1.87824,2.04618 -4.83426,2.11987 -7.04969,0.4754 l -58.44429,-43.466 44.48389,-40.50738 z" style="fill:#bdbcbc;fill-opacity:1;fill-rule:evenodd;stroke:#231f20;stroke-width:1.85541499;stroke-linecap:butt;stroke-linejoin:miter;stroke-miterlimit:22.92558479;stroke-dasharray:none;stroke-opacity:1" id="path450"/>
      <path inkscape:connector-curvature="0" d="m 352.29922,418.10428 60.85074,30.05207 c 1.53467,0.75968 2.47089,2.19261 2.74917,3.93993 0.27735,1.74638 -0.20347,3.37269 -1.37833,4.65098 l -41.21149,44.855 c -1.87824,2.04729 -4.83426,2.11892 -7.04969,0.47503 l -58.44429,-43.46565 44.48389,-40.50736 z" style="fill:#d3d2d2;fill-opacity:1;fill-rule:evenodd;stroke:#231f20;stroke-width:1.85541499;stroke-linecap:butt;stroke-linejoin:miter;stroke-miterlimit:22.92558479;stroke-dasharray:none;stroke-opacity:1" id="path452"/>
      <path inkscape:connector-curvature="0" d="m 352.29922,413.63957 60.85074,30.0532 c 1.53467,0.75799 2.47089,2.19148 2.74917,3.93769 0.27735,1.74693 -0.20347,3.3727 -1.37833,4.65041 l -41.21149,44.85705 c -1.87824,2.04543 -4.83426,2.11949 -7.04969,0.47353 l -58.44429,-43.46563 44.48389,-40.50625 z" style="fill:#e9e9e9;fill-opacity:1;fill-rule:evenodd;stroke:#231f20;stroke-width:1.85541499;stroke-linecap:butt;stroke-linejoin:miter;stroke-miterlimit:22.92558479;stroke-dasharray:none;stroke-opacity:1" id="path454"/>
      <path inkscape:connector-curvature="0" d="m 352.2981,409.17318 60.85186,30.05377 c 1.53467,0.75855 2.47089,2.19204 2.74917,3.93992 0.27884,1.74508 -0.20347,3.37045 -1.37833,4.65023 l -41.21149,44.85406 c -1.87824,2.04786 -4.83426,2.12267 -7.04969,0.47503 l -58.44429,-43.46508 44.48277,-40.50793 z" style="fill:#ffffff;fill-opacity:1;fill-rule:evenodd;stroke:#231f20;stroke-width:1.85541499;stroke-linecap:butt;stroke-linejoin:miter;stroke-miterlimit:22.92558479;stroke-dasharray:none;stroke-opacity:1" id="path456"/>
      <path inkscape:connector-curvature="0" d="m 342.20711,417.14263 c -0.72581,-1.55226 -0.80212,-3.17446 -0.20365,-4.4404 1.13762,-2.41273 4.34332,-2.88758 7.16113,-1.06656 2.81446,1.82511 4.17688,5.25672 3.03925,7.6689" style="fill:none;stroke:#231f20;stroke-width:1.85541499;stroke-linecap:butt;stroke-linejoin:miter;stroke-miterlimit:22.92558479;stroke-dasharray:none;stroke-opacity:1" id="path458"/>
      <path inkscape:connector-curvature="0" d="m 332.67104,426.0494 c -0.72623,-1.55226 -0.80104,-3.17446 -0.20407,-4.44096 1.13707,-2.41217 4.34452,-2.89019 7.16043,-1.06563 2.81667,1.82418 4.17798,5.25636 3.03866,7.66797" style="fill:none;stroke:#231f20;stroke-width:1.85541499;stroke-linecap:butt;stroke-linejoin:miter;stroke-miterlimit:22.92558479;stroke-dasharray:none;stroke-opacity:1" id="path460"/>
      <path inkscape:connector-curvature="0" d="m 323.13547,434.95449 c -0.72788,-1.55113 -0.80253,-3.17446 -0.20348,-4.44095 1.13708,-2.41105 4.34393,-2.8887 7.15999,-1.06394 2.81336,1.82211 4.17785,5.25635 3.03928,7.6689" style="fill:none;stroke:#231f20;stroke-width:1.85541499;stroke-linecap:butt;stroke-linejoin:miter;stroke-miterlimit:22.92558479;stroke-dasharray:none;stroke-opacity:1" id="path462"/>
      <path inkscape:connector-curvature="0" d="m 313.599,443.86333 c -0.72668,-1.55431 -0.80268,-3.17708 -0.20303,-4.44301 1.13498,-2.41049 4.34288,-2.88869 7.15834,-1.06545 2.81546,1.82363 4.17845,5.25673 3.04093,7.66984" style="fill:none;stroke:#231f20;stroke-width:1.85541499;stroke-linecap:butt;stroke-linejoin:miter;stroke-miterlimit:22.92558479;stroke-dasharray:none;stroke-opacity:1" id="path464"/>
      <path inkscape:connector-curvature="0" d="m 307.92649,457.11942 c -0.12268,-0.0705 -0.24791,-0.14422 -0.36895,-0.22162 -2.81381,-1.82418 -4.17636,-5.2584 -3.03973,-7.67058 1.13782,-2.41104 4.34378,-2.88814 7.16103,-1.06395 2.81561,1.82268 4.17845,5.25635 3.04018,7.6689" style="fill:none;stroke:#231f20;stroke-width:1.85541499;stroke-linecap:butt;stroke-linejoin:miter;stroke-miterlimit:22.92558479;stroke-dasharray:none;stroke-opacity:1" id="path466"/>
      <path inkscape:connector-curvature="0" d="m 346.64527,412.23992 c -0.72676,-1.55319 -0.80251,-3.17502 -0.20255,-4.44301 1.13614,-2.40992 4.3424,-2.88719 7.15946,-1.06395 2.81557,1.82363 4.17707,5.25617 3.03925,7.66722" style="fill:none;stroke:#231f20;stroke-width:1.85541499;stroke-linecap:butt;stroke-linejoin:miter;stroke-miterlimit:22.92558479;stroke-dasharray:none;stroke-opacity:1" id="path468"/>
      <path inkscape:connector-curvature="0" d="m 337.10878,421.14464 c -0.72638,-1.55076 -0.80044,-3.17446 -0.20258,-4.44095 1.13767,-2.41048 4.34245,-2.88758 7.15895,-1.06452 2.81444,1.82214 4.17856,5.25618 3.04036,7.66723" style="fill:none;stroke:#231f20;stroke-width:1.85541499;stroke-linecap:butt;stroke-linejoin:miter;stroke-miterlimit:22.92558479;stroke-dasharray:none;stroke-opacity:1" id="path470"/>
      <path inkscape:connector-curvature="0" d="m 327.5744,430.05347 c -0.72907,-1.55487 -0.80014,-3.17501 -0.20572,-4.44412 1.13708,-2.40937 4.34333,-2.88814 7.15999,-1.06508 2.8165,1.82363 4.18009,5.25692 3.04077,7.6689" style="fill:none;stroke:#231f20;stroke-width:1.85541499;stroke-linecap:butt;stroke-linejoin:miter;stroke-miterlimit:22.92558479;stroke-dasharray:none;stroke-opacity:1" id="path472"/>
      <path inkscape:connector-curvature="0" d="m 318.03733,438.95707 c -0.72578,-1.55169 -0.80268,-3.17239 -0.20527,-4.44095 1.13723,-2.41105 4.34408,-2.88757 7.15999,-1.06507 2.81665,1.82306 4.1786,5.25636 3.04302,7.66628" style="fill:none;stroke:#231f20;stroke-width:1.85541499;stroke-linecap:butt;stroke-linejoin:miter;stroke-miterlimit:22.92558479;stroke-dasharray:none;stroke-opacity:1" id="path474"/>
      <path inkscape:connector-curvature="0" d="m 309.16067,448.76509 c -0.72668,-1.55169 -0.80044,-3.17501 -0.20453,-4.44001 1.13872,-2.41254 4.34333,-2.88869 7.15999,-1.0677 2.8165,1.82419 4.178,5.25786 3.04077,7.67115" style="fill:none;stroke:#231f20;stroke-width:1.85541499;stroke-linecap:butt;stroke-linejoin:miter;stroke-miterlimit:22.92558479;stroke-dasharray:none;stroke-opacity:1" id="path476"/>
      <path inkscape:connector-curvature="0" d="m 372.35681,437.46466 9.79999,-3.44639 16.26185,7.07418 -31.56524,37.33983 5.5034,-40.96762 z" style="fill:#f0d8bf;fill-opacity:1;fill-rule:evenodd;stroke:#231f20;stroke-width:1.85541499;stroke-linecap:butt;stroke-linejoin:miter;stroke-miterlimit:22.92558479;stroke-dasharray:none;stroke-opacity:1" id="path484"/>
      <path inkscape:connector-curvature="0" d="m 397.59577,440.73413 -20.1195,23.76731 c 0,0 -3.07908,1.31006 -2.33941,-0.12254 l 12.18765,-23.51501 c 5.98254,-3.19354 8.19797,-3.41721 10.27126,-0.12987" style="fill:#d4bba1;fill-opacity:1;fill-rule:evenodd;stroke:none" id="path486"/>
      <path inkscape:connector-curvature="0" d="m 417.00778,396.35602 -12.1682,0.97288 -19.26876,47.94156 c 0,0 12.04776,-7.4383 12.34475,-3.58329 0.29307,3.85671 19.09221,-45.33115 19.09221,-45.33115 z" style="fill:#cbb06c;fill-opacity:1;fill-rule:evenodd;stroke:#231f20;stroke-width:1.85541499;stroke-linecap:butt;stroke-linejoin:miter;stroke-miterlimit:22.92558479;stroke-dasharray:none;stroke-opacity:1" id="path488"/>
      <path inkscape:connector-curvature="0" d="m 404.83958,397.3289 -13.44255,-6.04875 -19.15897,46.18451 c -1.43201,3.45387 11.9767,-4.29563 13.33276,7.8058 -1.2044,2.94854 13.51624,-33.85268 19.26876,-47.94156 z" style="fill:#edc04f;fill-opacity:1;fill-rule:evenodd;stroke:#231f20;stroke-width:1.85541499;stroke-linecap:round;stroke-linejoin:round;stroke-miterlimit:22.92558479;stroke-dasharray:none;stroke-opacity:1" id="path490"/>
      <path sodipodi:nodetypes="ccccc" inkscape:connector-curvature="0" d="m 393.51708,389.68543 -2.53149,-3.22476 -18.35999,49.32663 -0.38754,1.67736 c 0.38754,-1.67736 21.27902,-47.77923 21.27902,-47.77923 z" style="fill:#edcd7a;fill-opacity:1;fill-rule:evenodd;stroke:#231f20;stroke-width:1.85541499;stroke-linecap:round;stroke-linejoin:miter;stroke-miterlimit:22.92558479;stroke-dasharray:none;stroke-opacity:1" id="path492"/>
      <path inkscape:connector-curvature="0" d="m 378.78148,464.32021 -11.92807,14.11207 c 0.78192,-5.82395 1.56441,-11.64754 2.34577,-17.47111 2.82942,2.95246 6.10038,4.06504 9.5823,3.35904 z" style="fill:#231f20;fill-opacity:1;fill-rule:evenodd;stroke:#231f20;stroke-width:1.85541499;stroke-linecap:butt;stroke-linejoin:miter;stroke-miterlimit:22.92558479;stroke-dasharray:none;stroke-opacity:1" id="path494"/>
      <path inkscape:connector-curvature="0" d="m 370.37291,462.05915 -2.0716,10.7203 3.07684,-9.96437 -1.00524,-0.75593 z" style="fill:#ffffff;fill-opacity:1;fill-rule:evenodd;stroke:none" id="path496"/>
      <path inkscape:connector-curvature="0" d="m 407.93175,385.70567 c 6.98235,3.15595 10.82372,8.33955 8.58547,11.5718 -2.24291,3.23281 -9.72087,3.29378 -16.70172,0.1357 -6.98291,-3.16024 -10.82485,-8.34067 -8.58661,-11.5761 2.24256,-3.23375 9.72162,-3.2921 16.70286,-0.13151 z" style="fill:#f0d8bf;fill-opacity:1;fill-rule:evenodd;stroke:#231f20;stroke-width:1.85541499;stroke-linecap:butt;stroke-linejoin:miter;stroke-miterlimit:22.92558479;stroke-dasharray:none;stroke-opacity:1" id="path498"/>
      <path inkscape:connector-curvature="0" d="m 405.08981,389.80158 c 2.09666,0.94893 3.2487,2.50268 2.5775,3.47349 -0.67215,0.96895 -2.91638,0.98915 -5.00987,0.0396 -2.09498,-0.94687 -3.24964,-2.50212 -2.57469,-3.47237 0.67009,-0.96914 2.91245,-0.98766 5.00706,-0.0407 z" style="fill:#231f20;fill-opacity:1;fill-rule:evenodd;stroke:#231f20;stroke-width:1.85541499;stroke-linecap:butt;stroke-linejoin:miter;stroke-miterlimit:22.92558479;stroke-dasharray:none;stroke-opacity:1" id="path500"/>
      <path sodipodi:nodetypes="cccccccccccccccccccccccccccc" inkscape:connector-curvature="0" d="m 407.93175,385.70567 c 6.35209,2.87186 10.10651,7.42091 9.04367,10.65354 l 0.0323,-0.003 c 0,0 -7.44713,23.78134 -13.6412,37.96187 l 9.78337,4.90904 c 1.53468,0.75855 2.52084,2.51278 2.74918,3.93993 0.22854,1.42489 0.0467,2.16493 -0.37105,3.11873 0.17076,0.41985 0.29531,0.87094 0.37105,1.34485 0.17562,1.10697 0.0467,2.16774 -0.37105,3.11929 0.17076,0.42154 0.29531,0.87114 0.37105,1.34654 0.17562,1.10546 0.0467,2.16623 -0.37105,3.11891 0.17076,0.42042 0.29531,0.87151 0.37105,1.34541 0.27736,1.74526 -0.20348,3.37215 -1.37833,4.65248 l -41.2115,44.8535 c -1.87822,2.04617 -4.83424,2.11986 -7.04967,0.47541 l -58.44431,-43.46602 2.69726,-2.45781 -2.69726,-2.00651 2.69726,-2.45818 -2.69726,-2.00766 2.69726,-2.45668 -2.69726,-2.00801 44.48278,-40.50794 25.25723,11.3498 12.27122,-33.04482 c 0.0774,-0.53804 1.40234,-1.64102 1.40234,-1.64102 2.24255,-3.23374 9.72162,-3.29209 16.70286,-0.13151 z" style="fill:none;stroke:#231f20;stroke-width:3.71079421;stroke-linecap:round;stroke-linejoin:round;stroke-miterlimit:22.92558479;stroke-dasharray:none;stroke-opacity:1" id="path502"/>
      <path inkscape:connector-curvature="0" id="path56087" d="m 330.27146,458.60694 c -1.47236,-0.74262 -1.62827,-3.21144 -0.0679,-3.93191 1.18944,-0.56915 2.41514,1.01208 3.52819,0.006 0.64358,-0.98367 0.0254,-2.19741 -0.076,-3.26056 -0.24134,-1.10805 -0.16924,-2.6216 1.05859,-3.10496 1.18063,0.10267 2.45916,0.84334 3.72143,0.4652 1.23265,-0.33353 1.47679,-1.89482 1.13781,-2.95321 -0.37684,-1.44134 1.21863,-2.02382 2.36558,-2.04954 1.12108,-0.17398 2.64991,-0.0957 3.20526,-1.30271 0.28128,-1.4257 -0.92392,-2.82161 -0.35916,-4.32138 0.10394,-1.40218 1.64604,-2.33866 2.89355,-1.60229 1.20447,0.69722 2.97252,-0.0407 3.12016,-1.48238 0.1359,-0.78111 -0.0952,-1.59839 -0.55022,-2.2385" style="fill:none;fill-rule:evenodd;stroke:#231f20;stroke-width:2.30856919;stroke-linecap:round;stroke-linejoin:round;stroke-miterlimit:4;stroke-dasharray:none;stroke-opacity:1"/>
      <path sodipodi:nodetypes="ccccccc" inkscape:connector-curvature="0" id="path56094" d="m 337.62055,463.99134 c -1.31201,-1.60547 0.1065,-3.35471 1.94262,-3.30126 1.85428,-0.0106 2.60501,-1.71462 2.01216,-3.23512 0.47642,-1.81492 2.70459,-1.44534 3.98131,-2.27456 1.5654,-1.08944 0.0612,-3.07751 0.76048,-4.45876 0.85282,-1.28548 3.14305,0.10586 3.63803,-1.43014 -0.0502,-0.83132 -0.51268,-1.54167 -1.05222,-2.14082" style="fill:none;fill-rule:evenodd;stroke:#231f20;stroke-width:2.30856919;stroke-linecap:round;stroke-linejoin:round;stroke-miterlimit:4;stroke-dasharray:none;stroke-opacity:1"/>
      <path sodipodi:nodetypes="ccacccc" inkscape:connector-curvature="0" id="path56096" d="m 355.32047,444.28674 c -1.55562,-1.68591 0.91501,-2.82884 2.218,-3.37305 1.62785,-0.55528 -0.11148,-2.57505 0.49148,-3.58134 0.94042,-1.56949 3.73654,-1.10498 4.35087,-2.95482 0.20926,-0.9955 -0.37222,-2.11934 1.14688,-1.8375 1.61779,0.19015 3.90427,-0.87678 2.41128,-2.68779 -0.26487,-0.47778 -0.57093,-0.93122 -0.88875,-1.375" style="fill:none;fill-rule:evenodd;stroke:#231f20;stroke-width:2.30856919;stroke-linecap:round;stroke-linejoin:round;stroke-miterlimit:4;stroke-dasharray:none;stroke-opacity:1"/>
    </g>
  </g>
</svg>